<svg width="35" height="35" viewBox="0 0 35 35" xmlns="http://www.w3.org/2000/svg">
<path fill-rule="evenodd" clip-rule="evenodd" d="M2.70042 0.125255C2.47484 0.190077 2.12116 0.33401 1.91445 0.445123C1.41625 0.712956 0.702052 1.43686 0.43327 1.94634C-0.0265042 2.81801 0.000292028 2.07988 0.000292028 13.8759V24.555L0.172485 25.0682C0.267229 25.3504 0.446668 25.7404 0.571352 25.9349C1.0878 26.7407 2.13155 27.4524 3.0377 27.6167C3.30033 27.6644 5.02862 27.6903 7.94148 27.6903H12.4397L13.976 30.759C15.2611 33.3257 15.5702 33.8908 15.8658 34.2144C16.372 34.7685 16.7181 34.9525 17.3274 34.9916C18.0723 35.0394 18.4474 34.8918 19.0107 34.3292C19.4491 33.8913 19.5064 33.7896 21.0111 30.7843L22.56 27.6903H27.0583C29.9711 27.6903 31.6994 27.6644 31.962 27.6167C32.9686 27.4342 34.0688 26.6265 34.5404 25.7239C35.0349 24.7774 34.9994 25.6931 34.9994 13.8585C34.9994 2.08173 35.0262 2.81794 34.5665 1.94634C34.2892 1.42066 33.5768 0.708032 33.0513 0.430695C32.1702 -0.0343367 33.3135 -0.00295165 17.4558 0.00245014C4.08856 0.0070314 3.08261 0.0153734 2.70042 0.125255ZM31.8696 2.20262C32.2488 2.38122 32.5732 2.6952 32.7536 3.05829L32.9145 3.38226V13.7756C32.9145 23.6668 32.9085 24.1845 32.79 24.4917C32.6387 24.884 32.1206 25.3736 31.7344 25.4893C31.5358 25.5488 30.155 25.5706 26.5809 25.5706H21.6987L21.3937 25.7244L21.0886 25.8783L19.326 29.3826C18.3565 31.31 17.5348 32.8869 17.4999 32.8869C17.4649 32.8869 16.6432 31.31 15.6738 29.3826L13.9111 25.8783L13.6061 25.7244L13.3011 25.5706H8.41882C4.84474 25.5706 3.46391 25.5488 3.26533 25.4893C2.87918 25.3736 2.36103 24.884 2.20975 24.4917C2.09122 24.1845 2.0852 23.6668 2.0852 13.7756V3.38226L2.24619 3.05829C2.41763 2.71305 2.7709 2.36057 3.06689 2.2394C3.16607 2.19872 3.37033 2.14286 3.52071 2.11516C3.6711 2.08754 10.054 2.06901 17.7049 2.074C30.7934 2.08255 31.6307 2.09014 31.8696 2.20262ZM16.6169 4.48231C15.4372 4.79958 14.4614 5.91474 14.2887 7.14299C14.2013 7.76468 14.2013 12.1966 14.2887 12.8183C14.4154 13.7198 14.9991 14.6211 15.7746 15.1134C16.7671 15.7433 18.2326 15.7433 19.2251 15.1134C20.0007 14.6211 20.5843 13.7198 20.711 12.8183C20.748 12.555 20.7783 11.2781 20.7783 9.98064C20.7783 8.68318 20.748 7.40624 20.711 7.14299C20.5373 5.90797 19.547 4.7872 18.3571 4.47916C17.854 4.34897 17.1078 4.35027 16.6169 4.48231ZM18.0386 6.63379C18.1759 6.71105 18.3647 6.88569 18.458 7.02197L18.6278 7.26969V9.97565V12.6815L18.4671 12.9401C18.3787 13.0823 18.1877 13.2592 18.0426 13.3332C17.5086 13.6058 16.8379 13.4311 16.5327 12.9401L16.372 12.6815V9.97565V7.26969L16.5409 7.02313C16.8885 6.51577 17.5314 6.34866 18.0386 6.63379ZM16.5291 18.0444C15.9905 18.2166 15.5827 18.4692 15.1763 18.8822C14.5029 19.5665 14.1562 20.6117 14.2897 21.5549C14.4087 22.3951 14.7319 23.0184 15.3255 23.5522C15.7728 23.9546 16.3918 24.2497 17.0043 24.3527C17.394 24.4182 17.6058 24.4182 17.9955 24.3527C19.1571 24.1573 20.1733 23.3332 20.5423 22.287C20.7132 21.8023 20.7772 21.1732 20.7072 20.6645C20.6266 20.0779 20.2622 19.3233 19.8598 18.9091C19.2068 18.237 18.4211 17.9098 17.4756 17.9161C17.1346 17.9183 16.7678 17.968 16.5291 18.0444ZM18.0207 20.143C18.2914 20.2716 18.5096 20.5508 18.6025 20.8877C18.6854 21.1878 18.5814 21.5958 18.3528 21.8676C18.1165 22.1485 17.6812 22.3107 17.312 22.2553C16.7174 22.1662 16.2409 21.4539 16.3972 20.8877C16.5453 20.3513 16.9479 20.0364 17.4895 20.0336C17.6531 20.0327 17.892 20.082 18.0207 20.143Z" />
</svg>
