<svg width="41" height="35" viewBox="0 0 41 35" xmlns="http://www.w3.org/2000/svg">
<path fill-rule="evenodd" clip-rule="evenodd" d="M15.1669 0.0777958C14.2272 0.372002 13.5187 0.959914 12.9688 1.90183C12.6296 2.48247 12.6021 2.63076 12.5555 4.12686L12.5056 5.72977L8.227 5.73178C3.58589 5.73391 2.99246 5.79734 1.95916 6.40292C1.2726 6.80531 0.525987 7.66537 0.229398 8.3953C0.0309625 8.88381 0.0131622 9.84954 0.00689449 20.4589L0 31.9915L0.356382 32.7436C0.76065 33.597 1.41751 34.248 2.32419 34.6943L2.94557 35H20.1191H37.2926L38.0162 34.5818C38.8373 34.1072 39.5663 33.3032 39.8835 32.5225C40.0819 32.034 40.0997 31.0683 40.106 20.4589L40.1129 8.9263L39.7565 8.17418C39.1881 6.97454 38.129 6.16212 36.7537 5.87054C36.3372 5.78229 34.508 5.72977 31.8484 5.72977H27.6073L27.5535 4.1315C27.5085 2.79823 27.454 2.44549 27.2244 2.00386C26.8762 1.33397 26.218 0.672727 25.5373 0.309074C25.017 0.0310386 24.9263 0.0257737 20.2445 0.00270847C17.6246 -0.0100777 15.3396 0.0236428 15.1669 0.0777958ZM24.5232 2.69269C24.6702 2.8119 24.8536 3.03252 24.9306 3.18307C25.0076 3.33375 25.0706 3.96829 25.0706 4.59331V5.72977H20.0564H15.0423V4.59331C15.0423 3.96829 15.1053 3.33375 15.1823 3.18307C15.2593 3.03252 15.4426 2.8119 15.5897 2.69269C15.8311 2.49713 16.2643 2.47607 20.0564 2.47607C23.8485 2.47607 24.2818 2.49713 24.5232 2.69269ZM5.38998 20.4589V32.5556H4.44983C3.52007 32.5556 3.50415 32.5501 3.00825 32.0542L2.50683 31.5528V20.4589V9.36504L3.00825 8.86363C3.50415 8.36773 3.52007 8.36221 4.44983 8.36221H5.38998V20.4589ZM9.77738 10.7439V13.1257H8.8999H8.02242V10.7439V8.36221H8.8999H9.77738V10.7439ZM27.8284 20.4589V32.5556H20.0564H12.2845V20.4589V8.36221H20.0564H27.8284V20.4589ZM32.0904 10.7439V13.1257H31.213H30.3355V10.7439V8.36221H31.213H32.0904V10.7439ZM37.1782 8.89459L37.606 9.36141V20.457V31.5528L37.1046 32.0542C36.6087 32.5501 36.5928 32.5556 35.663 32.5556H34.7229V20.4456V8.33564L35.7366 8.38164C36.7233 8.42652 36.7619 8.44031 37.1782 8.89459ZM9.77738 16.5102V17.3877H8.8999H8.02242V16.5102V15.6328H8.8999H9.77738V16.5102ZM32.0904 16.5102V17.3877H31.213H30.3355V16.5102V15.6328H31.213H32.0904V16.5102ZM9.77738 26.2252V32.5556H8.8999H8.02242V26.2252V19.8948H8.8999H9.77738V26.2252ZM32.0904 26.2252V32.5556H31.213H30.3355V26.2252V19.8948H31.213H32.0904V26.2252Z" />
</svg>
