<svg width="30" height="30" viewBox="0 0 30 30" xmlns="http://www.w3.org/2000/svg">
<path fill-rule="evenodd" clip-rule="evenodd" d="M1.75795 0.1411C1.54739 0.217683 1.23355 0.391185 1.06053 0.526707C0.64346 0.853312 0.264516 1.41323 0.117947 1.91953C0.00211143 2.31947 0 2.48778 0 11.2609C0 20.034 0.00211143 20.2023 0.117947 20.6022C0.352903 21.4137 1.04217 22.1474 1.80604 22.3991C2.16933 22.5188 2.3637 22.5231 7.38686 22.5231H12.5913L12.6665 22.8829C12.8342 23.686 13.2954 24.8611 13.7406 25.6202C14.454 26.8363 15.5995 28.0329 16.7196 28.7318C17.5822 29.2701 18.5112 29.6508 19.5381 29.887C19.9216 29.9752 20.2929 30 21.2317 30C22.17 30 22.5435 29.9751 22.9326 29.8866C23.9543 29.6542 25.0921 29.1749 25.8944 28.6388C26.9676 27.9218 28.0561 26.7598 28.7221 25.6202C29.2308 24.7497 29.6763 23.5481 29.8937 22.4606C29.9767 22.0455 30 21.6471 30 20.6461C30 19.2169 29.9416 18.7941 29.5868 17.6565C29.3347 16.8481 28.9519 16.0299 28.4855 15.3025C28.0894 14.685 27.2574 13.72 26.8002 13.3481L26.5103 13.1122V7.71953C26.5103 2.47019 26.5071 2.31584 26.3907 1.91403C26.241 1.3969 25.8307 0.805447 25.3987 0.484036C25.2228 0.353143 24.9099 0.190404 24.7033 0.12233C24.3348 0.000947783 24.1222 -0.00136724 13.2343 0.000259528L2.14076 0.00188636L1.75795 0.1411ZM24.2795 2.03428C24.6024 2.23669 24.7048 2.48884 24.7378 3.16389L24.7667 3.75271H13.2551H1.74352L1.77196 3.17365C1.80018 2.59777 1.88804 2.29776 2.07771 2.12989C2.36575 1.87486 2.12569 1.87987 13.3431 1.89369C24.0216 1.90689 24.0773 1.90758 24.2795 2.03428ZM24.7507 6.56828V7.5068H13.2551H1.75953V6.56828V5.62975H13.2551H24.7507V6.56828ZM24.7507 10.6921V12.0004L24.1789 11.7821C23.8643 11.6619 23.3563 11.5035 23.0499 11.43C22.5794 11.3172 22.3009 11.296 21.261 11.2943C20.273 11.2926 19.9249 11.3156 19.5015 11.4104C18.5258 11.6289 17.3828 12.1142 16.5689 12.6555C15.5007 13.3659 14.4114 14.5271 13.7393 15.6719C13.4484 16.1675 13.1057 16.9379 12.9043 17.549C12.6419 18.3454 12.4946 19.1263 12.4527 19.9439L12.4164 20.6495L7.42522 20.6321C2.52581 20.6151 2.43026 20.6125 2.23079 20.4875C2.11906 20.4174 1.9739 20.2625 1.90821 20.1433C1.79109 19.9306 1.78856 19.8283 1.77261 14.6552L1.7563 9.38384H13.2535H24.7507V10.6921ZM4.0176 13.1971C3.95308 13.2262 3.82111 13.3393 3.72434 13.4484C3.5637 13.6294 3.54839 13.6844 3.54839 14.0795C3.54839 14.4966 3.55642 14.5209 3.76933 14.748L3.99021 14.9837H7.09677H10.2033L10.4242 14.748C10.6374 14.5206 10.6452 14.4971 10.6452 14.0764C10.6452 13.6559 10.6374 13.6323 10.4243 13.4049L10.2034 13.1692L7.16915 13.1567C5.50029 13.1498 4.08211 13.168 4.0176 13.1971ZM22.3167 13.2694C22.5748 13.305 23.0544 13.4292 23.3825 13.5455C24.5204 13.9486 25.2725 14.4437 26.1351 15.3572C26.9565 16.227 27.4605 17.0557 27.8228 18.1322C28.0396 18.7761 28.1552 19.3607 28.2026 20.0527C28.3101 21.6215 27.9865 23.1333 27.2712 24.4029C26.8738 25.1082 26.5825 25.4987 26.0453 26.0462C25.1129 26.9965 23.9969 27.6386 22.7527 27.9404C21.8388 28.1622 20.5011 28.1497 19.6023 27.9111C18.6441 27.6567 17.7008 27.1694 16.9157 26.5232C16.2009 25.935 15.3899 24.88 14.9709 23.9935C14.7056 23.4322 14.4373 22.5746 14.337 21.9676C14.2228 21.2762 14.2228 20.016 14.337 19.3246C14.4373 18.7176 14.7056 17.8599 14.9709 17.2987C15.2883 16.6271 15.726 15.9966 16.2996 15.3847C17.1179 14.5118 17.894 13.9853 18.9443 13.5905C19.5726 13.3544 20.0002 13.2597 20.6716 13.2083C21.2711 13.1623 21.6392 13.176 22.3167 13.2694ZM4.0176 16.9512C3.95308 16.9803 3.82111 17.0934 3.72434 17.2025C3.5637 17.3835 3.54839 17.4385 3.54839 17.8336C3.54839 18.2507 3.55642 18.275 3.76933 18.5021L3.99021 18.7378H7.09677H10.2033L10.4242 18.5021C10.6374 18.2747 10.6452 18.2512 10.6452 17.8305C10.6452 17.4099 10.6374 17.3863 10.4243 17.159L10.2034 16.9233L7.16915 16.9108C5.50029 16.9039 4.08211 16.922 4.0176 16.9512ZM24.3646 17.8878C24.2973 17.9187 23.9136 18.2915 23.5119 18.7162C23.1102 19.141 22.235 20.0636 21.5669 20.7665L20.3523 22.0444L19.277 20.9121C18.1179 19.6915 18.0568 19.6502 17.5236 19.7265C17.3535 19.7509 17.2233 19.8249 17.0779 19.98C16.9057 20.1637 16.8685 20.253 16.8478 20.5321C16.8343 20.7152 16.846 20.9294 16.874 21.008C16.902 21.0865 17.5957 21.8677 18.4157 22.7437C20.0093 24.4466 20.0209 24.4556 20.5306 24.3827C20.6622 24.3639 20.8549 24.2691 20.9814 24.1611C21.1029 24.0574 22.1832 22.9213 23.3819 21.6367C25.2908 19.5909 25.5666 19.2712 25.6032 19.0623C25.6759 18.6468 25.6021 18.3341 25.3739 18.0907C25.192 17.8967 25.1265 17.8679 24.827 17.851C24.6399 17.8403 24.4318 17.8569 24.3646 17.8878Z" />
</svg>
