<svg width="30" height="35" viewBox="0 0 30 35" xmlns="http://www.w3.org/2000/svg">
<path fill-rule="evenodd" clip-rule="evenodd" d="M4.37247 0.112325C2.99868 0.48459 1.95101 1.16592 1.17034 2.19497C0.712868 2.79792 0.356537 3.50203 0.153769 4.20361C0.0244674 4.65111 -0.000203762 4.90081 1.26179e-06 5.76236C0.000206285 6.56509 0.0282944 6.88497 0.129303 7.23282C0.296602 7.80882 0.64398 8.57223 0.928348 8.98881C1.2557 9.46818 1.85205 10.078 2.32271 10.4147C2.83828 10.7834 3.594 11.1649 4.02277 11.273C4.34322 11.3538 4.35081 11.3616 4.3083 11.5685C4.2062 12.0654 4.0678 13.176 4.06664 13.5079C4.06541 13.8596 4.06131 13.867 3.86374 13.867C3.48308 13.867 2.93724 14.0165 2.44785 14.2548C1.85546 14.5432 1.2337 15.1382 0.931355 15.7058C0.381208 16.7389 0.3836 18.0441 0.937574 19.0843C1.21559 19.6062 1.81596 20.207 2.33747 20.4852C2.9345 20.8037 3.47816 20.9093 4.52672 20.9104L5.4323 20.9115L5.62017 21.2604C6.00329 21.9718 6.87232 23.2211 7.39937 23.8182C7.98662 24.4834 8.74193 25.1478 9.49423 25.6608C9.99175 26.0001 11.0487 26.551 11.6 26.7582L11.9246 26.8803V27.2081V27.5359L11.5317 27.6136C10.3366 27.8498 9.28073 28.3889 8.38218 29.2217C7.82329 29.7397 7.41078 30.2801 7.03805 30.9829C6.60552 31.7982 6.38334 32.6131 6.34363 33.53C6.31438 34.2051 6.32552 34.3052 6.45189 34.5052C6.52939 34.6279 6.69299 34.7893 6.81553 34.864C7.03443 34.9976 7.17576 35 15 35C22.8242 35 22.9656 34.9976 23.1845 34.864C23.307 34.7893 23.4706 34.6279 23.5481 34.5052C23.6745 34.3052 23.6856 34.2051 23.6564 33.53C23.6331 32.9928 23.5719 32.6017 23.4424 32.1622C23.2333 31.4524 22.7983 30.5951 22.3543 30.0176C21.8969 29.4229 21.1774 28.7878 20.5121 28.3915C19.9508 28.0573 18.9132 27.671 18.3316 27.5797C18.0773 27.5397 18.0754 27.5369 18.0754 27.2166V26.8937L18.7075 26.6265C20.7655 25.7566 22.451 24.309 23.7436 22.3013C23.9902 21.9184 24.2764 21.449 24.3798 21.2583L24.5677 20.9115L25.4733 20.9104C26.5218 20.9093 27.0655 20.8037 27.6625 20.4852C28.184 20.207 28.7844 19.6062 29.0624 19.0843C29.4484 18.3596 29.5787 17.4592 29.4138 16.6573C29.2086 15.6602 28.4418 14.6719 27.5416 14.2446C27.0578 14.0149 26.5072 13.867 26.1363 13.867C25.9387 13.867 25.9346 13.8596 25.9334 13.5079C25.9322 13.176 25.7938 12.0654 25.6917 11.5685C25.6492 11.3614 25.6566 11.3539 25.9793 11.2729C26.4395 11.1576 27.2944 10.7186 27.7629 10.3571C28.2331 9.99419 28.762 9.4411 29.0712 8.98881C29.3557 8.57278 29.7032 7.80958 29.8707 7.23282C29.9717 6.88497 29.9998 6.56509 30 5.76236C30.0002 4.90081 29.9755 4.65111 29.8462 4.20361C29.6428 3.49977 29.2868 2.79751 28.8247 2.18847C28.15 1.29929 27.221 0.64292 26.0713 0.243093C25.4332 0.0212255 25.4019 0.0173954 24.2602 0.0206099C23.1826 0.0236192 23.0588 0.0372295 22.5517 0.208828C21.8212 0.455933 21.2389 0.76637 20.6597 1.21736C20.2327 1.54975 19.4347 2.43352 19.3606 2.65594C19.3409 2.71517 19.1306 2.65861 18.6527 2.46567C17.3924 1.95669 16.3793 1.76135 15 1.76135C13.6207 1.76135 12.6076 1.95669 11.3473 2.46567C10.8694 2.65861 10.6591 2.71517 10.6394 2.65594C10.5653 2.43352 9.76725 1.54975 9.34033 1.21736C8.75608 0.762403 8.17156 0.452103 7.4483 0.213C6.97736 0.0573371 6.75949 0.0288171 5.87645 0.00741001C5.02854 -0.013108 4.76857 0.00501625 4.37247 0.112325ZM6.91087 2.26398C7.33663 2.41663 7.61751 2.57086 7.99503 2.85914C8.32225 3.10904 8.84929 3.72465 8.84929 3.85699C8.84929 3.89167 8.63491 4.10205 8.37296 4.32439C7.77237 4.83413 6.96 5.7601 6.40166 6.57152C5.99441 7.16333 5.20541 8.64363 5.0375 9.13086L4.96089 9.35328L4.5043 9.18743C3.99065 9.00085 3.47023 8.66524 3.09586 8.27916C2.74752 7.92003 2.37752 7.28158 2.21774 6.76398C2.0555 6.23858 2.04094 5.38141 2.18501 4.8396C2.34294 4.24581 2.69558 3.62295 3.11574 3.1959C3.94657 2.35145 4.98112 1.98705 6.18399 2.11522C6.42831 2.14128 6.75539 2.20817 6.91087 2.26398ZM25.5079 2.29592C26.0653 2.50787 26.4634 2.76817 26.8843 3.1959C27.3044 3.62295 27.6571 4.24581 27.815 4.8396C27.945 5.32854 27.9435 6.14249 27.8119 6.6486C27.5101 7.80814 26.6265 8.77672 25.4957 9.18743L25.0391 9.35328L24.9626 9.1334C24.9204 9.01248 24.7111 8.55841 24.4973 8.12446C23.7898 6.68806 22.7724 5.33675 21.6633 4.36057C21.4002 4.12899 21.1746 3.91102 21.1621 3.87621C21.1206 3.76117 21.6216 3.15158 21.9873 2.87227C22.6003 2.40398 23.1549 2.17664 23.8502 2.10866C24.402 2.05476 25.0732 2.13061 25.5079 2.29592ZM16.3497 3.98496C17.4522 4.19424 18.5755 4.68243 19.519 5.36233C19.8102 5.57216 20.3125 6.0096 20.6351 6.3344C21.6684 7.37459 22.4012 8.48961 22.9658 9.88046C23.2829 10.6617 23.7388 12.3257 23.6579 12.4066C23.5798 12.4847 22.3776 12.3002 21.552 12.0835C20.6649 11.8505 19.5986 11.3633 18.8645 10.8554C18.5837 10.6612 18.121 10.2581 17.8361 9.95972C16.9691 9.0516 16.4423 8.12275 16.1283 6.94823C16.0371 6.60743 15.9134 6.25356 15.8534 6.16191C15.6825 5.90079 15.3434 5.72864 15 5.72864C14.6566 5.72864 14.3175 5.90079 14.1466 6.16191C14.0866 6.25356 13.9629 6.60743 13.8717 6.94823C13.5577 8.12275 13.0309 9.0516 12.1639 9.95972C11.879 10.2581 11.4163 10.6612 11.1355 10.8554C10.3737 11.3825 9.3149 11.8616 8.40262 12.0922C7.53099 12.3125 6.41806 12.4826 6.34254 12.407C6.31616 12.3806 6.39188 11.9734 6.51093 11.5023C7.03449 9.43015 7.98348 7.71047 9.36807 6.32476C10.0688 5.62352 10.804 5.08698 11.6171 4.68346C12.316 4.33657 12.9263 4.12332 13.6075 3.98783C14.2545 3.85918 15.6793 3.85768 16.3497 3.98496ZM15.3417 10.2613C15.7524 10.9157 17.0724 12.2409 17.7678 12.6972C18.4808 13.1649 19.5212 13.6681 20.3204 13.9317C21.1426 14.203 22.4675 14.4707 23.2692 14.5277L23.899 14.5724L23.8532 15.2285C23.7527 16.6677 23.4769 17.9313 22.9965 19.1535C22.4514 20.5406 21.6392 21.7876 20.6179 22.8055C19.556 23.8641 18.18 24.6759 16.8794 25.0112C15.6969 25.316 14.3031 25.316 13.1206 25.0112C11.8183 24.6754 10.419 23.8495 9.37046 22.7977C8.35608 21.7801 7.54493 20.5313 7.00347 19.1535C6.5231 17.9313 6.24727 16.6677 6.14681 15.2285L6.10102 14.5724L6.73079 14.5277C7.52812 14.471 8.85278 14.204 9.67964 13.9333C10.5827 13.6376 11.8568 12.9862 12.5486 12.4665C13.2724 11.9229 14.2461 10.9018 14.6583 10.2544C14.8274 9.98879 14.9812 9.77137 15 9.77137C15.0188 9.77137 15.1726 9.99187 15.3417 10.2613ZM9.87223 15.5706C9.38953 15.7234 9.11125 16.0886 9.11125 16.5697C9.11125 17.1641 9.56319 17.6288 10.1408 17.6283C10.5169 17.628 10.8427 17.4488 11.0406 17.1334C11.1488 16.9609 11.1749 16.8246 11.1562 16.5312C11.1302 16.1246 10.9888 15.8673 10.6945 15.6914C10.4712 15.558 10.0895 15.5019 9.87223 15.5706ZM19.573 15.5717C19.0887 15.7243 18.8269 16.09 18.8274 16.613C18.8279 17.1859 19.2743 17.6281 19.8522 17.6281C20.4461 17.6281 20.8766 17.1875 20.8771 16.579C20.8774 16.1909 20.7252 15.8945 20.4331 15.7146C20.181 15.5593 19.8085 15.4973 19.573 15.5717ZM4.09418 16.141C4.11141 16.2257 4.14421 16.4642 4.16704 16.6711C4.20743 17.0365 4.51394 18.4969 4.5941 18.7062C4.62834 18.7954 4.55583 18.8056 4.08031 18.778C3.64204 18.7526 3.4757 18.7115 3.28236 18.5806C2.90279 18.3235 2.68 17.9541 2.64426 17.5228C2.59293 16.904 2.8568 16.4329 3.40859 16.1577C3.84324 15.9409 4.05236 15.9359 4.09418 16.141ZM26.7206 16.223C26.9419 16.3528 27.065 16.4937 27.2022 16.7744C27.3534 17.0836 27.381 17.2182 27.3557 17.5232C27.3198 17.9569 27.0968 18.3237 26.7096 18.5861C26.5045 18.725 26.355 18.7617 25.9122 18.7819C25.4503 18.8029 25.3733 18.7911 25.4065 18.7045C25.4862 18.4966 25.7928 17.0349 25.833 16.6711C25.9107 15.9668 25.9115 15.9655 26.1824 16.0095C26.3149 16.031 26.5571 16.1271 26.7206 16.223ZM13.0879 20.851C12.7001 21.0058 12.46 21.3821 12.46 21.8348C12.46 22.188 12.6074 22.4944 12.866 22.6787C13.1453 22.8777 13.7911 23.0783 14.4362 23.1664C14.854 23.2234 15.146 23.2234 15.5638 23.1664C16.2089 23.0783 16.8547 22.8777 17.134 22.6787C17.2394 22.6036 17.3739 22.4488 17.4328 22.3347C17.5771 22.0553 17.5687 21.5739 17.4147 21.3109C17.1117 20.7931 16.6401 20.6701 15.9128 20.9191C15.3135 21.1244 14.6516 21.1248 14.0837 20.9202C13.6498 20.7637 13.3572 20.7434 13.0879 20.851ZM16.0114 28.0984C15.9773 28.9275 15.9143 29.0776 15.4721 29.3812C15.2876 29.5079 15.1738 29.5351 14.925 29.512C14.7521 29.4958 14.5318 29.4239 14.4352 29.3519C14.1026 29.1042 14.0203 28.8707 13.9879 28.0825L13.9577 27.3495L15 27.3487L16.0423 27.348L16.0114 28.0984ZM12.286 30.031C12.5136 30.467 12.9223 30.9074 13.3529 31.1809C13.7976 31.4632 14.4516 31.6492 15 31.6492C15.547 31.6492 16.2035 31.463 16.6402 31.1841C17.0666 30.9118 17.4948 30.451 17.717 30.0253C17.8201 29.8278 17.9374 29.6661 17.9775 29.6659C18.166 29.6655 18.8395 29.9083 19.2713 30.1324C19.9547 30.4869 20.7666 31.3131 21.1005 31.9939C21.2396 32.2775 21.3732 32.6084 21.3973 32.7291L21.4412 32.9487H15.0085C9.29884 32.9487 8.57593 32.937 8.57593 32.8447C8.57593 32.7875 8.64912 32.5604 8.73865 32.34C9.22175 31.1502 10.332 30.1442 11.5488 29.7937C11.7743 29.7287 11.9896 29.6734 12.0272 29.6709C12.0647 29.6683 12.1812 29.8304 12.286 30.031Z" />
</svg>
