<svg width="51" height="35" viewBox="0 0 51 35" xmlns="http://www.w3.org/2000/svg">
<path fill-rule="evenodd" clip-rule="evenodd" d="M3.51316 0.149545C1.90381 0.582215 0.61947 1.82911 0.160877 3.40407C0.0169446 3.8983 0.000509381 5.34298 0.000509381 17.4979C0.000509381 32.5152 -0.0423218 31.5232 0.65752 32.7154C1.04838 33.3812 1.8302 34.1186 2.50942 34.4622C3.63498 35.0316 2.26837 34.9997 25.5 34.9997C48.7316 34.9997 47.365 35.0316 48.4906 34.4622C49.1698 34.1186 49.9516 33.3812 50.3425 32.7154C51.0423 31.5232 50.9995 32.5152 50.9995 17.4979C50.9995 2.48066 51.0423 3.47269 50.3425 2.28048C49.9516 1.61472 49.1698 0.877259 48.4906 0.533688C47.3644 -0.0361131 48.74 -0.00439088 25.4542 0.00276892C7.35034 0.00823821 3.95393 0.0310101 3.51316 0.149545ZM47.0847 3.2031C47.2599 3.29876 47.5289 3.5414 47.6824 3.74227L47.9615 4.10752V17.4979V30.8884L47.6824 31.2536C47.5289 31.4545 47.2599 31.6971 47.0847 31.7928C46.7842 31.9569 45.5608 31.9667 25.5 31.9667C5.43917 31.9667 4.21579 31.9569 3.91528 31.7928C3.74007 31.6971 3.47113 31.4545 3.31763 31.2536L3.03853 30.8884L3.00995 17.7543C2.99421 10.5306 3.00616 4.48132 3.03664 4.31158C3.11344 3.88268 3.65839 3.29469 4.13422 3.12733C4.47288 3.00829 7.69966 2.99039 25.6494 3.00819C45.5449 3.02798 46.7846 3.03922 47.0847 3.2031ZM15.3898 6.07786C15.1159 6.12887 14.4801 6.36962 13.9769 6.61276C13.288 6.94549 12.9065 7.2106 12.433 7.68553C11.6844 8.43622 11.1312 9.33537 10.8318 10.2884C10.6588 10.8394 10.615 11.2125 10.6216 12.0784C10.6287 12.9834 10.6744 13.2981 10.8863 13.9016C11.0272 14.3028 11.2913 14.8774 11.4732 15.1784C12.1711 16.3333 13.5392 17.4008 14.8405 17.8058C15.7532 18.0899 17.0058 18.152 17.9164 17.9583C18.3199 17.8724 18.9923 17.6343 19.4105 17.4291C20.4579 16.9152 21.5438 15.8362 22.0454 14.8108C22.2454 14.4018 22.4771 13.8005 22.5601 13.4745C22.7367 12.7808 22.7569 11.4656 22.6024 10.7159C22.5427 10.4261 22.3127 9.80861 22.0912 9.34372C21.77 8.66931 21.5353 8.34772 20.9298 7.75266C20.4977 7.32784 19.9057 6.86663 19.5548 6.68117C18.3589 6.04922 16.7742 5.81971 15.3898 6.07786ZM28.2341 8.50354C27.4397 8.89504 27.3805 10.0811 28.131 10.572C28.3579 10.7204 29.0601 10.7359 35.5668 10.7359H42.752L43.0907 10.3978C43.2769 10.2118 43.4343 9.95449 43.4404 9.82602C43.4617 9.37385 43.4088 9.10655 43.25 8.86471C42.9088 8.34473 42.9749 8.34911 35.4888 8.35159C29.5023 8.35348 28.4959 8.37456 28.2341 8.50354ZM17.631 9.14971C18.1363 9.28933 18.845 9.8468 19.2028 10.386C19.3735 10.6434 19.5665 11.1071 19.6315 11.4165C20.0129 13.2309 18.5792 15.0163 16.7335 15.0251C15.9161 15.029 15.2377 14.7812 14.6694 14.2712C14.0293 13.6966 13.7139 13.0499 13.6644 12.211C13.612 11.3241 13.8332 10.6833 14.4145 10.0378C15.2845 9.07185 16.3169 8.78675 17.631 9.14971ZM33.5682 15.2834C33.113 15.5132 32.8352 16.0629 32.927 16.552C33.0159 17.0246 33.4569 17.4536 33.9353 17.5325C34.5636 17.6362 42.1501 17.6057 42.5385 17.498C42.7334 17.4439 43.0173 17.2701 43.1694 17.1116C43.3893 16.8824 43.446 16.7302 43.446 16.3689C43.446 15.8879 43.2974 15.596 42.9156 15.3259C42.7083 15.1795 42.1934 15.1581 38.2995 15.1342C34.2724 15.1095 33.8885 15.1217 33.5682 15.2834ZM12.87 19.2901C12.4702 19.3947 11.865 19.6269 11.5253 19.8062C10.6767 20.2539 9.60485 21.3439 9.14018 22.2317C8.57611 23.3093 8.47032 23.9205 8.46863 26.1098C8.46724 27.9204 8.47769 28.0251 8.69324 28.3472C9.01338 28.8256 9.50056 29.0539 10.0931 29.0028C10.6501 28.9549 11.0109 28.7199 11.271 28.236C11.4286 27.9426 11.4554 27.66 11.4554 26.2933C11.4554 25.1771 11.4995 24.5454 11.6015 24.2027C11.9107 23.1632 12.7991 22.3776 13.8892 22.1797C14.6516 22.0411 18.7106 22.0401 19.4803 22.1784C20.2049 22.3083 20.9612 22.7815 21.3577 23.3527C21.799 23.9883 21.9141 24.6073 21.9143 26.3451C21.9144 27.619 21.9449 27.9494 22.0886 28.2306C22.3314 28.7058 22.7137 28.9544 23.2764 29.0028C23.8689 29.0539 24.3561 28.8256 24.6762 28.3472C24.8913 28.0258 24.9024 27.9179 24.9024 26.1395C24.9024 25.1112 24.8534 24.0326 24.7938 23.7428C24.734 23.453 24.5054 22.8399 24.2857 22.3806C23.9782 21.7376 23.7223 21.3827 23.1741 20.8388C22.7715 20.4392 22.1942 19.9908 21.8458 19.807C21.5069 19.6282 20.8834 19.3935 20.4603 19.2854C19.7736 19.1101 19.3635 19.0896 16.6439 19.0945C13.975 19.0992 13.5067 19.1235 12.87 19.2901ZM33.5778 19.8115C33.1962 20.0073 32.9252 20.4477 32.9252 20.8724C32.9252 21.3513 33.1038 21.6922 33.4669 21.9063C33.7185 22.0547 34.2233 22.0723 38.2326 22.0723H42.7168L43.0203 21.8173C43.6404 21.2964 43.6014 20.3565 42.9414 19.9131L42.603 19.6857L38.2101 19.6871C34.9219 19.6882 33.7571 19.7195 33.5778 19.8115ZM28.0743 24.4842C27.9288 24.607 27.7607 24.8052 27.7007 24.9246C27.5414 25.2424 27.5675 25.7297 27.7617 26.0579C28.12 26.6633 27.9002 26.6466 35.5039 26.6466C42.9728 26.6466 42.909 26.6508 43.25 26.1312C43.4088 25.8893 43.4617 25.622 43.4404 25.1699C43.4343 25.0414 43.2769 24.784 43.0907 24.5981L42.752 24.26L35.5454 24.2605L28.3388 24.261L28.0743 24.4842Z" />
</svg>
