<svg width="30" height="30" viewBox="0 0 30 30" xmlns="http://www.w3.org/2000/svg">
<path fill-rule="evenodd" clip-rule="evenodd" d="M5.12004 0.112703C5.01829 0.174228 4.87447 0.312293 4.80046 0.419448C4.6826 0.590064 4.66323 0.721443 4.64412 1.47781L4.62232 2.34133L2.61937 2.35834C0.698097 2.37464 0.608998 2.38039 0.435975 2.4988C0.336841 2.56666 0.198142 2.71183 0.127833 2.82139C0.00102267 3.01892 0 3.12596 0 16.217C0 28.9134 0.00447414 29.4202 0.117223 29.5894C0.181715 29.6862 0.311146 29.8182 0.404848 29.8827C0.574099 29.9992 0.67464 30 15.009 30H29.4428L29.6882 29.7586C29.8888 29.5612 29.941 29.4595 29.9741 29.2014C29.9965 29.0277 30.0062 23.066 29.9958 15.9531C29.9771 3.14186 29.9757 3.01863 29.8491 2.82139C29.7788 2.71183 29.6401 2.56666 29.5409 2.4988C29.3679 2.38039 29.2788 2.37464 27.3575 2.35834L25.3546 2.34133L25.3328 1.47857C25.3135 0.714287 25.2951 0.59241 25.1716 0.410533C24.9818 0.13112 24.7168 -8.27983e-05 24.3424 0.000210457C23.973 0.000445061 23.6711 0.150592 23.489 0.424668C23.3774 0.592528 23.362 0.721149 23.3618 1.48092L23.3615 2.34602H22.0252H20.6887L20.6669 1.48092C20.6483 0.74244 20.6263 0.587308 20.5172 0.421149C20.3342 0.142381 20.0505 -8.27983e-05 19.6788 0.000210457C19.3068 0.000445061 19.0057 0.149888 18.8231 0.424668C18.7115 0.592528 18.6961 0.721149 18.6959 1.48092L18.6956 2.34602H14.9884H11.2813L11.281 1.48092C11.2808 0.721149 11.2654 0.592528 11.1538 0.424668C10.9717 0.150592 10.6699 0.000445061 10.3004 0.000210457C9.92606 -8.27983e-05 9.661 0.13112 9.47123 0.410533C9.34768 0.592469 9.32933 0.714229 9.30997 1.48092L9.28817 2.34602H7.95174H6.61537L6.61512 1.48092C6.61492 0.721149 6.59946 0.592528 6.48786 0.424668C6.418 0.319507 6.26715 0.18109 6.15255 0.116985C5.87694 -0.0372089 5.3713 -0.0393204 5.12004 0.112703ZM28.0274 5.4252V6.6862H14.9884H1.94946V5.4252V4.1642H14.9884H28.0274V5.4252ZM28.0274 18.3871V28.2698H14.9884H1.94946V18.3871V8.50438H14.9884H28.0274V18.3871ZM5.24116 11.0227C5.02091 11.1057 4.76479 11.3849 4.69698 11.616C4.65403 11.7623 4.6376 14.0952 4.64885 18.4557C4.66508 24.7557 4.67154 25.0818 4.78314 25.2493C4.84763 25.346 4.97706 25.478 5.07076 25.5425C5.23918 25.6585 5.35372 25.66 14.9136 25.6751C25.694 25.692 24.8706 25.7232 25.1661 25.287L25.311 25.0733L25.328 18.4557C25.339 14.1889 25.3224 11.7609 25.2813 11.6207C25.2463 11.5013 25.1148 11.3121 24.9891 11.2003L24.7606 10.9971L15.0648 10.9858C9.73214 10.9796 5.31147 10.9962 5.24116 11.0227ZM9.29987 14.0176V15.2493H7.95762H6.61537V14.0176V12.7859H7.95762H9.29987V14.0176ZM13.9658 14.0176V15.2493H12.6235H11.2813V14.0176V12.7859H12.6235H13.9658V14.0176ZM18.6317 14.0176V15.2493H17.2894H15.9472V14.0176V12.7859H17.2894H18.6317V14.0176ZM23.3615 14.0176V15.2493H21.9873H20.6131V14.0176V12.7859H21.9873H23.3615V14.0176ZM9.29987 18.3284V19.5894H7.95762H6.61537V18.3284V17.0674H7.95762H9.29987V18.3284ZM13.9658 18.3284V19.5894H12.6235H11.2813V18.3284V17.0674H12.6235H13.9658V18.3284ZM18.6317 18.3284V19.5894H17.2894H15.9472V18.3284V17.0674H17.2894H18.6317V18.3284ZM23.3615 18.3284V19.5894H21.9873H20.6131V18.3284V17.0674H21.9873H23.3615V18.3284ZM9.29987 22.6686V23.9296H7.95762H6.61537V22.6686V21.4076H7.95762H9.29987V22.6686ZM13.9658 22.6686V23.9296H12.6235H11.2813V22.6686V21.4076H12.6235H13.9658V22.6686ZM18.6317 22.6686V23.9296H17.2894H15.9472V22.6686V21.4076H17.2894H18.6317V22.6686ZM23.3615 22.6686V23.9296H21.9873H20.6131V22.6686V21.4076H21.9873H23.3615V22.6686Z" />
</svg>
