<svg width="30" height="30" viewBox="0 0 30 30" xmlns="http://www.w3.org/2000/svg">
<path fill-rule="evenodd" clip-rule="evenodd" d="M14.6823 0.0575972C14.5559 0.105816 14.3792 0.222866 14.2897 0.317585C14.1955 0.417397 13.263 2.3224 12.0733 4.84554C10.9437 7.24114 9.98652 9.22135 9.94609 9.24608C9.90566 9.27074 7.82898 9.59772 5.3312 9.97267C1.73968 10.5118 0.734657 10.682 0.526104 10.7866C0.187813 10.9563 0.00088305 11.2865 4.06845e-06 11.7164C-0.000464722 11.9293 0.0395583 12.09 0.130855 12.2419C0.203225 12.3622 1.75861 13.9872 3.58736 15.8528C6.33242 18.6534 6.90716 19.268 6.88272 19.3762C6.79617 19.7604 5.3312 28.8477 5.3312 29.0007C5.3312 29.6199 5.9847 30.1298 6.5677 29.9654C6.69989 29.9281 8.63559 28.8919 10.8693 27.6625C13.103 26.4332 14.9621 25.4274 15.0006 25.4274C15.0391 25.4274 16.8966 26.4328 19.1283 27.6617C21.3601 28.8906 23.2955 29.9269 23.4294 29.9646C23.7789 30.0631 24.1145 29.9548 24.3866 29.6556C24.5408 29.4861 24.6135 29.3418 24.6408 29.1511C24.6696 28.9503 24.4878 27.7123 23.9088 24.165C23.485 21.5696 23.1262 19.4017 23.1112 19.3475C23.0925 19.2796 24.1221 18.1897 26.4108 15.8547C28.2405 13.9879 29.7968 12.3622 29.8691 12.2419C29.9604 12.09 30.0005 11.9293 30 11.7164C29.9991 11.2865 29.8122 10.9563 29.4739 10.7866C29.2653 10.682 28.2603 10.5118 24.6688 9.97267C22.171 9.59772 20.0943 9.27074 20.0539 9.24608C20.0135 9.22135 19.0559 7.24114 17.9258 4.84554C16.7957 2.44994 15.8136 0.425188 15.7432 0.34605C15.4664 0.0347149 15.0434 -0.0803106 14.6823 0.0575972ZM16.7594 7.17672C17.7444 9.26589 18.5442 10.8893 18.63 10.9727C18.7122 11.053 18.8369 11.1494 18.9069 11.187C18.9769 11.2247 20.7568 11.5177 22.8623 11.8382C24.9678 12.1586 26.722 12.428 26.7606 12.4367C26.7992 12.4454 25.5862 13.7208 24.0651 15.2708C22.5439 16.8208 21.2347 18.1989 21.1557 18.3332C21.047 18.5179 21.0144 18.6533 21.0218 18.889C21.0271 19.0605 21.32 20.9537 21.6727 23.0962C22.0253 25.2388 22.3098 26.9951 22.3047 26.9992C22.2996 27.0033 20.7397 26.1475 18.8382 25.0974L15.3809 23.1883H15H14.6191L11.1618 25.0974C9.26025 26.1475 7.70035 27.0033 7.69531 26.9992C7.69021 26.9951 7.97465 25.2388 8.3273 23.0962C8.68001 20.9537 8.97288 19.0605 8.97821 18.889C8.9856 18.6533 8.95296 18.5179 8.84432 18.3332C8.76527 18.1989 7.45605 16.8208 5.93495 15.2708C4.41384 13.7208 3.20084 12.4454 3.2394 12.4367C3.27796 12.428 5.03223 12.1586 7.13769 11.8382C9.2432 11.5177 11.0231 11.2247 11.0931 11.187C11.1631 11.1494 11.2878 11.053 11.37 10.9727C11.4558 10.8893 12.2556 9.26589 13.2406 7.17672C14.187 5.16915 14.9787 3.52658 15 3.52658C15.0213 3.52658 15.813 5.16915 16.7594 7.17672Z" />
</svg>
