<svg width="14" height="14" viewBox="0 0 14 14" xmlns="http://www.w3.org/2000/svg">
<path d="M11.4543 2.53906C10.2195 1.30859 8.57317 0.625 6.83536 0.625C3.22256 0.625 0.295731 3.54167 0.295731 7.14193C0.295731 8.28125 0.615854 9.42057 1.16463 10.3776L0.25 13.75L3.72561 12.8385C4.68598 13.3398 5.7378 13.6133 6.83536 13.6133C10.4482 13.6133 13.375 10.6966 13.375 7.09635C13.3293 5.41016 12.689 3.76953 11.4543 2.53906ZM9.99085 9.46615C9.85366 9.83073 9.21341 10.1953 8.89329 10.2409C8.6189 10.2865 8.25305 10.2865 7.8872 10.1953C7.65854 10.1042 7.33841 10.013 6.97256 9.83073C5.32622 9.14714 4.27439 7.50651 4.18293 7.36979C4.09146 7.27865 3.49695 6.50391 3.49695 5.68359C3.49695 4.86328 3.90854 4.4987 4.04573 4.31641C4.18293 4.13411 4.36585 4.13411 4.50305 4.13411C4.59451 4.13411 4.73171 4.13411 4.82317 4.13411C4.91463 4.13411 5.05183 4.08854 5.18902 4.40755C5.32622 4.72656 5.64634 5.54688 5.69207 5.59245C5.7378 5.68359 5.7378 5.77474 5.69207 5.86589C5.64634 5.95703 5.60061 6.04818 5.50914 6.13932C5.41768 6.23047 5.32622 6.36719 5.28049 6.41276C5.18902 6.50391 5.09756 6.59505 5.18902 6.73177C5.28049 6.91406 5.60061 7.41536 6.10366 7.87109C6.7439 8.41797 7.24695 8.60026 7.42988 8.69141C7.6128 8.78255 7.70427 8.73698 7.79573 8.64583C7.88719 8.55469 8.20732 8.1901 8.29878 8.00781C8.39024 7.82552 8.52744 7.87109 8.66463 7.91667C8.80183 7.96224 9.625 8.3724 9.76219 8.46354C9.94512 8.55469 10.0366 8.60026 10.0823 8.64583C10.128 8.78255 10.128 9.10156 9.99085 9.46615Z" />
</svg>
