<svg width="35" height="35" fill="none" xmlns="http://www.w3.org/2000/svg"><path fill-rule="evenodd" clip-rule="evenodd" d="M.55.05A1.4 1.4 0 0 0 .2.32L0 .54v33.94l.26.26.26.26h33.95l.26-.26.26-.26V.53l-.26-.26-.26-.26h-16.9C8.3-.02.63 0 .56.04ZM32.97 17.5v15.47H2.02V2.03h30.95v15.48ZM9.52 4.6c-.29.12-4.84 4.7-4.96 4.98-.05.14-.07.33-.04.53.04.3.14.4 3.58 3.85l3.54 3.55-3.54 3.54c-3.44 3.45-3.54 3.55-3.58 3.86-.03.2-.01.38.04.53.06.12 1.1 1.22 2.45 2.58 1.65 1.64 2.43 2.38 2.59 2.43.13.04.35.06.52.03.27-.04.5-.26 3.83-3.58l3.54-3.54 3.55 3.54c3.45 3.45 3.55 3.54 3.85 3.58.22.03.4.01.58-.06.38-.16 4.77-4.55 4.93-4.93.08-.2.1-.36.07-.58-.05-.3-.14-.4-3.58-3.86l-3.54-3.54 3.54-3.55c3.44-3.45 3.53-3.55 3.58-3.85.03-.22.01-.4-.07-.58a51.87 51.87 0 0 0-4.93-4.93c-.19-.08-.36-.1-.58-.07-.3.05-.4.14-3.85 3.58l-3.55 3.54-3.5-3.5c-3.56-3.56-3.67-3.66-4.13-3.65-.08 0-.23.05-.34.1Zm7.68 9.56c.23.07.35.07.58 0 .26-.08.77-.56 3.8-3.6l3.52-3.5 1.4 1.43 1.42 1.43-3.5 3.5c-3.02 3.03-3.5 3.54-3.58 3.8a.86.86 0 0 0 0 .58c.08.25.56.76 3.57 3.78l3.48 3.5-1.4 1.43-1.39 1.44-3.51-3.5c-3.04-3.04-3.55-3.52-3.8-3.6a.86.86 0 0 0-.59 0c-.25.08-.76.56-3.78 3.58l-3.5 3.48-1.41-1.42-1.42-1.42 3.48-3.49c3.02-3.02 3.5-3.53 3.57-3.78a.86.86 0 0 0 0-.58c-.07-.26-.55-.76-3.57-3.79L7.1 9.94l1.4-1.42L9.93 7.1l3.49 3.49c3.02 3.01 3.53 3.5 3.78 3.57Z" fill="#323232"/></svg>