<svg width="36" height="35" fill="none" xmlns="http://www.w3.org/2000/svg"><path fill-rule="evenodd" clip-rule="evenodd" d="M15.86.04a16.86 16.86 0 0 0-6.42 1.94c-1.6.83-2.9 1.8-4.22 3.1A17.38 17.38 0 0 0 .06 15.74c-.12 1.16-.05 3.47.13 4.53.34 1.96.88 3.54 1.8 5.3.83 1.58 1.8 2.9 3.1 4.2a17.38 17.38 0 0 0 10.66 5.16c1.16.13 3.46.06 4.52-.12 1.97-.34 3.55-.88 5.3-1.8 1.59-.83 2.9-1.8 4.21-3.1a17.38 17.38 0 0 0 5.16-10.66c.12-1.16.06-3.46-.13-4.52a17.03 17.03 0 0 0-1.79-5.3c-.83-1.59-1.8-2.9-3.1-4.21A17.2 17.2 0 0 0 17.4 0c-.72 0-1.4.02-1.54.04Zm3.63 2.18c3.72.5 7.3 2.46 9.72 5.36a15.39 15.39 0 0 1 3.48 7.35 19 19 0 0 1 .14 4.15 15.66 15.66 0 0 1-3.69 8.43 30 30 0 0 1-1.95-1.86l-1.9-1.9.6-.47c.76-.6 2.77-2.6 3.48-3.46.66-.8 1.2-1.53 1.36-1.82a1.2 1.2 0 0 0 0-1 18.9 18.9 0 0 0-1.84-2.36 21.08 21.08 0 0 0-6.42-5.14 12.23 12.23 0 0 0-2.9-1.05 8.02 8.02 0 0 0-2.07-.15 8.7 8.7 0 0 0-1.98.13c-.98.21-1.97.57-3 1.07l-.99.49-2.04-2.05L7.44 5.9l.57-.45a15.24 15.24 0 0 1 11.48-3.23ZM7.8 9.35l1.9 1.9-.6.47c-.76.6-2.77 2.6-3.48 3.45-.66.8-1.2 1.54-1.35 1.83a1.2 1.2 0 0 0 0 1c.18.36 1.02 1.43 1.83 2.35a21.08 21.08 0 0 0 6.42 5.15c1.07.52 1.9.82 2.9 1.04.57.13.88.15 2.07.15a8.7 8.7 0 0 0 1.99-.12c.97-.21 1.97-.57 3-1.08l.98-.48 2.04 2.04a34.49 34.49 0 0 1 2 2.09c-.08.13-1.7 1.3-2.31 1.66a15.73 15.73 0 0 1-6.11 2.02c-1.09.12-3.18.05-4.15-.13A15.52 15.52 0 0 1 4.6 25.85a15.67 15.67 0 0 1-2.33-5.92c-.06-.35-.13-1.2-.15-1.93A14.99 14.99 0 0 1 5.9 7.45c.01 0 .88.85 1.92 1.9Zm11.37 1.2c2.35.52 4.85 2.09 7.23 4.55.97 1 2 2.23 2 2.4 0 .34-2.67 3.18-3.94 4.2-.36.28-.68.52-.71.52-.03 0-.48-.42-1-.93l-.94-.94.27-.52c.14-.28.33-.78.41-1.1.12-.49.14-.72.11-1.44a4.36 4.36 0 0 0-.2-1.38 5.13 5.13 0 0 0-1.28-2.04 5.13 5.13 0 0 0-2.04-1.28 4.36 4.36 0 0 0-1.38-.2 4.14 4.14 0 0 0-1.44.11 6.9 6.9 0 0 0-1.1.41l-.52.27-.8-.8-.8-.8.72-.33a8.44 8.44 0 0 1 5.4-.7Zm-6.94 3.16.94.93-.26.52c-.15.3-.34.79-.42 1.1-.12.5-.14.73-.11 1.44.02.68.07.97.2 1.39a5.2 5.2 0 0 0 1.28 2.04c.6.6 1.29 1.03 2.04 1.27.42.14.71.19 1.39.21a4.33 4.33 0 0 0 2.53-.53l.52-.26.8.8.8.8-.72.33a8.42 8.42 0 0 1-6.32.45c-2.08-.69-4.25-2.17-6.32-4.3-.96-1-2-2.24-2-2.4 0-.2 1.12-1.5 2.26-2.64.94-.95 2.24-2.07 2.39-2.08.03 0 .48.42 1 .93Zm6.1.88a3.1 3.1 0 0 1 2.1 2.18c.1.39.06 1.42-.07 1.74l-.1.22-2.01-2.01-2.01-2.02.33-.1a4.03 4.03 0 0 1 1.75-.01Zm.17 5.77a4.2 4.2 0 0 1-1.74.08 3 3 0 0 1-1.4-.82 2.78 2.78 0 0 1-.88-2.13c0-.28.05-.68.11-.88l.11-.36 2.01 2 2.02 2.02-.23.1Z" fill="#323232"/></svg>