<svg width="35" height="35" fill="none" xmlns="http://www.w3.org/2000/svg"><path fill-rule="evenodd" clip-rule="evenodd" d="M16.37.1a4.94 4.94 0 0 0-2.09 1.06c-.48.39-.7.5-1.2.61-.25.06-.48.05-1.04-.04A4.73 4.73 0 0 0 9 2.18a4.86 4.86 0 0 0-2.2 2.24l-.5 1.03c-.1.2-.3.47-.44.6-.15.12-.58.35-.95.51-.38.16-.86.4-1.07.54-.22.14-.6.47-.85.74a4.7 4.7 0 0 0-1.29 2.77c-.07.5-.07.7.03 1.38.09.6.1.86.04 1.1-.1.5-.22.71-.64 1.23-.48.6-.9 1.42-1.03 2.07-.13.65-.13 1.6 0 2.22.15.67.56 1.49 1.03 2.07.42.52.53.73.64 1.23.06.24.05.5-.04 1.1-.1.67-.1.88-.03 1.38a4.69 4.69 0 0 0 1.28 2.76c.25.26.63.59.84.73.22.15.7.4 1.08.55.38.16.81.4.96.53.16.13.36.4.48.66.72 1.5.8 1.66 1.2 2.08.47.51.88.82 1.47 1.12.96.48 1.9.62 3.03.45a2.35 2.35 0 0 1 2.24.56 5.3 5.3 0 0 0 1.66.95c.4.14.67.18 1.33.2.65.04.95.02 1.34-.07a5.7 5.7 0 0 0 2.07-1.04 2.4 2.4 0 0 1 1.23-.64c.25-.06.49-.05 1.05.04a4.92 4.92 0 0 0 5.49-3.2c.4-.95.67-1.22 1.62-1.63.39-.16.89-.41 1.1-.56.22-.14.6-.47.84-.73a4.71 4.71 0 0 0 1.27-3.93 9.63 9.63 0 0 1-.08-1c0-.5.2-.95.64-1.5.5-.62.9-1.43 1.05-2.1a6.3 6.3 0 0 0 0-2.24 5.53 5.53 0 0 0-1.05-2.1 3.76 3.76 0 0 1-.53-.85 3.43 3.43 0 0 1-.03-1.67 4.7 4.7 0 0 0-1.27-3.91 6.1 6.1 0 0 0-.84-.73c-.21-.15-.7-.4-1.08-.56-.37-.15-.8-.39-.95-.52-.15-.12-.35-.4-.45-.59l-.49-1.03A4.7 4.7 0 0 0 26 2.18a4.73 4.73 0 0 0-3.04-.45c-.56.09-.8.1-1.05.04a2.4 2.4 0 0 1-1.23-.64A5.74 5.74 0 0 0 18.66.1a6.82 6.82 0 0 0-2.29 0Zm1.88 2.1c.4.12.83.36 1.23.7.44.37 1.3.8 1.85.93.5.11 1.28.11 1.95 0 .46-.08.64-.08 1-.01a2.95 2.95 0 0 1 2.2 1.93 4.45 4.45 0 0 0 2.74 2.75 2.95 2.95 0 0 1 1.95 2.2c.07.35.07.56-.03 1.21-.1.63-.1.9-.04 1.3.04.28.12.66.18.85.16.48.47 1.04.8 1.43.6.74.8 1.22.8 2.01 0 .79-.2 1.27-.8 2.01-.33.39-.64.95-.8 1.43-.06.19-.14.57-.18.85-.06.4-.05.67.04 1.3.1.65.1.86.03 1.2a2.95 2.95 0 0 1-1.95 2.2 4.47 4.47 0 0 0-2.74 2.75 2.99 2.99 0 0 1-2.24 1.94 2.2 2.2 0 0 1-.96 0 5.4 5.4 0 0 0-2.09.03c-.57.15-1.23.5-1.71.9-.2.17-.57.4-.8.52-.78.37-1.59.37-2.36 0-.24-.12-.6-.35-.8-.53a5.4 5.4 0 0 0-1.85-.93 5.52 5.52 0 0 0-1.96 0 2.2 2.2 0 0 1-.99.01 2.95 2.95 0 0 1-2.2-1.95 4.75 4.75 0 0 0-1.18-1.81 4.1 4.1 0 0 0-1.5-.9 3 3 0 0 1-2.02-2.23c-.07-.34-.06-.55.04-1.2a4.56 4.56 0 0 0-1.06-3.73 2.65 2.65 0 0 1-.68-1.86c0-.73.18-1.22.68-1.85a4.56 4.56 0 0 0 1.06-3.74c-.1-.65-.1-.86-.04-1.2A2.92 2.92 0 0 1 5.8 8.5a4.4 4.4 0 0 0 2.71-2.73 2.95 2.95 0 0 1 2.21-1.95 2.4 2.4 0 0 1 1 0 5.3 5.3 0 0 0 1.95 0 5.4 5.4 0 0 0 1.85-.92 2.9 2.9 0 0 1 2.73-.7Zm-5.93 8.76c-.9.22-1.7.87-2.1 1.71-.14.27-.27.65-.31.86a61.9 61.9 0 0 0-.07 3.96c0 3.92.02 4.15.39 4.91.25.5.84 1.1 1.34 1.35.55.26 1.28.4 1.8.35a3.2 3.2 0 0 0 2.89-2.48c.05-.25.08-1.63.07-4.17 0-2.97-.02-3.89-.09-4.16a3.28 3.28 0 0 0-3.92-2.33Zm6.36.1c-.17.08-.35.24-.43.37-.12.2-.14.34-.14 1.12 0 .82.02.91.16 1.13.3.46.98.61 1.42.31.12-.08.3-.26.37-.39.12-.2.14-.35.14-1.06 0-.7-.02-.85-.14-1.06a1.34 1.34 0 0 0-.92-.54c-.1 0-.3.06-.46.13Zm4.46-.03c-.11.05-.28.17-.36.26-.1.1-1.1 2.52-2.41 5.8-1.66 4.14-2.26 5.71-2.26 5.92 0 .15.06.38.13.5.14.28.6.55.91.55.25 0 .7-.22.84-.42.06-.08 1.12-2.7 2.37-5.82 2.02-5.06 2.26-5.7 2.23-5.94-.07-.5-.46-.87-.95-.92a.98.98 0 0 0-.5.07Zm-9.67 2.03c.13.05.3.15.4.23.35.32.35.24.35 4.17 0 2.42-.03 3.72-.08 3.85-.11.3-.39.54-.71.64-.56.15-1.11-.08-1.34-.57-.12-.27-.13-.49-.13-3.88 0-3.6 0-3.6.15-3.9a.93.93 0 0 1 .46-.46c.34-.17.56-.19.9-.08Zm9.6 7.89c-.12.05-.3.2-.38.32-.15.2-.17.31-.19 1.1-.02.8 0 .9.13 1.14.2.35.5.52.93.52.39 0 .62-.13.87-.47.12-.16.15-.31.17-1 .02-.72 0-.85-.12-1.11a1.08 1.08 0 0 0-1.42-.5Z" fill="#323232"/></svg>