<svg width="27" height="35" fill="none" xmlns="http://www.w3.org/2000/svg"><path fill-rule="evenodd" clip-rule="evenodd" d="M12.88.05c-.07.03-.48.39-.93.8a16.09 16.09 0 0 1-3.99 2.9A14.84 14.84 0 0 1 1.82 5.4c-.58.03-1.13.1-1.23.13-.1.04-.26.16-.37.28L0 6.02v6.34c0 5.74.01 6.4.12 7.09A19.76 19.76 0 0 0 5.6 30.37c.95.94 1.93 1.74 3.1 2.5 1.6 1.05 3.93 2.13 4.6 2.13.68 0 3.08-1.1 4.65-2.14a19.29 19.29 0 0 0 8.54-13.41c.1-.69.12-1.35.12-7.1V6.01l-.24-.24a1.02 1.02 0 0 0-.61-.3 5.5 5.5 0 0 0-.87-.08A15.15 15.15 0 0 1 14.75.94a7.57 7.57 0 0 0-1-.88c-.2-.07-.7-.08-.87-.01Zm.73 2.75a17.74 17.74 0 0 0 10.45 4.68l.53.05-.03 5.27c-.03 4.42-.05 5.4-.15 6.06a17.7 17.7 0 0 1-2.1 6.3 16.94 16.94 0 0 1-7.4 6.97c-1.44.7-1.54.73-1.87.62a24.81 24.81 0 0 1-3.08-1.58 17.27 17.27 0 0 1-7.78-12.3c-.1-.66-.12-1.65-.14-6.07C2 7.93 2 7.5 2.12 7.5a17.53 17.53 0 0 0 11.18-5c.02.01.16.14.3.3Zm-1.92 5.5c-1.28.24-2.42.7-3.52 1.44a9.2 9.2 0 0 0-4 6.14c-.13.79-.13 2.3 0 3.1a9.41 9.41 0 0 0 2.8 5.2c.65.6 1.65 1.28 2.44 1.65.66.31 1.55.58 2.38.73.75.13 2.28.13 3.05 0a9.24 9.24 0 0 0 5.74-3.42 9 9 0 0 0 1.84-4.17c.14-.78.14-2.3 0-3.09a9 9 0 0 0-1.84-4.16 9.18 9.18 0 0 0-5.74-3.42c-.76-.13-2.4-.13-3.15 0Zm2.98 2.13a7.3 7.3 0 0 1 2.2.83 7.43 7.43 0 0 1 2.32 2.15c.4.58.85 1.58 1.02 2.22.28 1.1.28 2.5 0 3.6a8.51 8.51 0 0 1-1.03 2.24 8.75 8.75 0 0 1-1.83 1.83c-.85.57-1.77.96-2.75 1.15a8.8 8.8 0 0 1-2.66-.02A7.24 7.24 0 0 1 6.64 20c-.31-.8-.46-1.6-.46-2.56a7.14 7.14 0 0 1 8.48-7Zm2.27 3.99c-.08.03-.66.58-1.3 1.21-.63.64-1.72 1.72-2.43 2.41l-1.28 1.26-1.08-1.07c-1.17-1.15-1.27-1.2-1.87-1.12a.8.8 0 0 0-.52.27c-.2.2-.25.3-.27.6-.02.2 0 .44.03.53.03.08.76.86 1.62 1.72 1.68 1.68 1.71 1.7 2.3 1.62.15-.02.38-.12.52-.24.15-.11 1.48-1.43 2.97-2.93 2.38-2.39 2.72-2.75 2.76-2.98.09-.46 0-.8-.26-1.06-.21-.22-.3-.25-.64-.27a1.7 1.7 0 0 0-.55.05Z" fill="#323232"/></svg>