<svg width="35" height="35" viewBox="0 0 35 35" fill="none" xmlns="http://www.w3.org/2000/svg">
<path fill-rule="evenodd" clip-rule="evenodd" d="M0.547719 0.045672C0.472408 0.0771658 0.318362 0.200608 0.205395 0.319942L0 0.536907V17.5106V34.4843L0.257907 34.7421L0.515746 35H17.4928H34.4698L34.7276 34.7421L34.9855 34.4843V17.5072V0.530198L34.7276 0.272359L34.4698 0.014452L17.5772 0.00144368C8.2863 -0.00567667 0.62303 0.0142466 0.547719 0.045672ZM32.9658 17.5072V32.9803H17.4928H2.01971V17.5072V2.03417H17.4928H32.9658V17.5072ZM9.51662 4.5966C9.23132 4.72497 4.67786 9.30548 4.56428 9.57838C4.50513 9.72058 4.48897 9.90763 4.51834 10.1095C4.5625 10.4126 4.66034 10.5179 8.09987 13.9642L11.636 17.5072L8.09987 21.0503C4.66034 24.4966 4.5625 24.6018 4.51834 24.905C4.48897 25.1068 4.50513 25.2939 4.56428 25.4361C4.61665 25.562 5.66163 26.6626 7.01416 28.0163C8.65663 29.6602 9.44178 30.3998 9.60014 30.4521C9.72797 30.4943 9.95438 30.5068 10.1171 30.4807C10.3891 30.4371 10.621 30.2204 13.9494 26.8988L17.4922 23.3634L21.0355 26.8998C24.488 30.3455 24.5869 30.4374 24.892 30.4819C25.1135 30.5141 25.2838 30.4948 25.474 30.4157C25.8521 30.2585 30.2441 25.8665 30.4013 25.4884C30.4804 25.2983 30.4997 25.128 30.4674 24.9065C30.423 24.6014 30.331 24.5024 26.8857 21.0503L23.3495 17.5072L26.8857 13.9642C30.331 10.512 30.423 10.4131 30.4674 10.108C30.4997 9.88647 30.4804 9.7162 30.4013 9.526C30.2441 9.14794 25.8521 4.75592 25.474 4.59872C25.2838 4.51965 25.1135 4.50034 24.892 4.53259C24.5869 4.57702 24.488 4.66897 21.0352 8.11494L17.4915 11.6517L13.9831 8.14383C10.4256 4.58674 10.319 4.4926 9.85942 4.50157C9.78384 4.50308 9.62958 4.5458 9.51662 4.5966ZM17.2018 14.1577C17.4334 14.2252 17.5521 14.2252 17.7837 14.1577C18.0356 14.0841 18.5468 13.6016 21.5858 10.5695L25.097 7.06633L26.5087 8.49266L27.9205 9.91906L24.4239 13.4221C21.3971 16.4547 20.9159 16.9644 20.8424 17.2162C20.7748 17.4479 20.7748 17.5666 20.8424 17.7982C20.9159 18.0499 21.3968 18.56 24.4092 21.5809L27.891 25.0726L26.4963 26.5104L25.1016 27.9481L21.5881 24.4449C18.5481 21.4138 18.0355 20.9303 17.7837 20.8568C17.5521 20.7892 17.4334 20.7892 17.2018 20.8568C16.9499 20.9303 16.4414 21.4103 13.4186 24.4274L9.92631 27.9132L8.50655 26.4934L7.0868 25.0737L10.5726 21.5814C13.5897 18.5586 14.0697 18.0501 14.1432 17.7982C14.2108 17.5666 14.2108 17.4479 14.1432 17.2162C14.0697 16.9644 13.5897 16.4559 10.5726 13.433L7.0868 9.94076L8.50655 8.52101L9.92631 7.10125L13.4186 10.587C16.4414 13.6042 16.9499 14.0841 17.2018 14.1577Z" fill="#323232"/>
</svg>
