<svg width="36" height="35" viewBox="0 0 36 35" fill="none" xmlns="http://www.w3.org/2000/svg">
<path fill-rule="evenodd" clip-rule="evenodd" d="M15.8605 0.0362061C15.1593 0.108086 14.0917 0.296096 13.3715 0.474599C11.9413 0.829074 10.7997 1.26589 9.4382 1.9797C7.8476 2.8136 6.53201 3.78245 5.22162 5.08497C4.17557 6.12473 3.66612 6.74013 2.89308 7.89773C1.32465 10.2463 0.347602 12.9531 0.05974 15.7469C-0.0595356 16.9042 0.00762536 19.2056 0.191668 20.268C0.532397 22.2348 1.06633 23.8124 1.98347 25.5618C2.81737 27.1524 3.78621 28.468 5.08874 29.7784C6.1285 30.8244 6.74389 31.3339 7.9015 32.1069C10.2501 33.6754 12.9568 34.6524 15.7507 34.9403C16.908 35.0595 19.2094 34.9924 20.2718 34.8083C22.2386 34.4676 23.8162 33.9337 25.5656 33.0165C27.1562 32.1826 28.4718 31.2138 29.7821 29.9113C30.8282 28.8715 31.3376 28.2561 32.1107 27.0985C33.6791 24.7499 34.6562 22.0432 34.944 19.2493C35.0633 18.092 34.9961 15.7906 34.8121 14.7282C34.4714 12.7614 33.9374 11.1838 33.0203 9.43443C32.1864 7.84383 31.2176 6.52825 29.915 5.21786C28.8757 4.17221 28.2599 3.66235 27.1043 2.89061C25.4196 1.76563 23.5813 0.954779 21.6304 0.476172C20.0438 0.0869529 19.1552 -0.0127626 17.3993 0.00125776C16.6846 0.00700269 15.9921 0.0227328 15.8605 0.0362061ZM19.4853 2.21989C23.2056 2.71122 26.7837 4.68324 29.2131 7.58128C31.0656 9.79102 32.1592 12.1023 32.6918 14.9334C32.8754 15.909 32.9426 17.9961 32.8254 19.0837C32.6001 21.1759 31.8558 23.4245 30.8035 25.1922C30.4375 25.8071 29.2749 27.4271 29.1397 27.5107C29.11 27.529 28.2322 26.6901 27.189 25.6464L25.2923 23.7488L25.8939 23.2751C26.652 22.6779 28.6644 20.6796 29.3697 19.8234C30.0314 19.0203 30.5764 18.2862 30.7254 17.9974C30.8696 17.7178 30.8698 17.2792 30.726 16.9989C30.5407 16.6382 29.7077 15.5682 28.8908 14.6415C26.8226 12.2957 24.6899 10.5874 22.4717 9.50015C21.4026 8.97606 20.5821 8.67993 19.5714 8.45307C19.0049 8.326 18.6917 8.30309 17.5019 8.30179C16.3871 8.30049 15.9808 8.32613 15.5185 8.42694C14.5415 8.63992 13.5483 8.99583 12.5154 9.50302L11.5298 9.98697L9.48573 7.94287L7.44163 5.89877L8.00921 5.45155C9.88794 3.97114 11.8913 2.99368 14.0893 2.48519C15.0723 2.25778 15.676 2.17154 16.647 2.11963C17.709 2.0628 18.5105 2.09111 19.4853 2.21989ZM7.81088 9.34593L9.71142 11.2474L9.10991 11.7212C8.35172 12.3184 6.33935 14.3167 5.63403 15.1728C4.97234 15.9759 4.42732 16.71 4.27836 16.9989C4.13412 17.2784 4.13392 17.717 4.27782 17.9974C4.46302 18.3581 5.29603 19.4281 6.11298 20.3547C8.18115 22.7006 10.3139 24.4088 12.5321 25.4961C13.6011 26.0202 14.4216 26.3163 15.4324 26.5432C15.9988 26.6702 16.3121 26.6931 17.5019 26.6944C18.6167 26.6957 19.023 26.6701 19.4853 26.5693C20.4622 26.3563 21.4554 26.0004 22.4882 25.4933L23.4736 25.0095L25.5107 27.0457C26.6311 28.1656 27.5327 29.1062 27.5144 29.1359C27.4308 29.2711 25.8108 30.4338 25.196 30.7997C23.4283 31.852 21.1797 32.5963 19.0875 32.8217C17.9999 32.9388 15.9128 32.8716 14.9372 32.688C12.6583 32.2593 10.613 31.4181 8.8503 30.1847C7.13811 28.9867 5.75289 27.5688 4.61157 25.8462C3.46163 24.1106 2.68059 22.1248 2.28303 19.926C2.22079 19.5817 2.15486 18.7325 2.13338 17.9985C2.07703 16.073 2.24452 14.7754 2.76943 13.0727C3.34447 11.2069 4.14835 9.67359 5.38823 8.07712C5.65844 7.72914 5.88646 7.44449 5.89494 7.44449C5.90342 7.44449 6.76557 8.30015 7.81088 9.34593ZM19.1775 10.5461C21.5309 11.0684 24.0278 12.6395 26.4106 15.0974C27.3765 16.0938 28.4104 17.3349 28.4104 17.4981C28.4104 17.8369 25.7365 20.6834 24.4701 21.693C24.1084 21.9813 23.7877 22.2172 23.7574 22.2172C23.7271 22.2172 23.2792 21.7979 22.7619 21.2853L21.8215 20.3536L22.0878 19.832C22.2343 19.5452 22.4196 19.0489 22.4996 18.7292C22.621 18.2431 22.6398 18.0078 22.614 17.2929C22.5897 16.6208 22.5458 16.3244 22.4087 15.9061C22.1616 15.1528 21.7333 14.4686 21.1323 13.8677C20.5314 13.2667 19.8472 12.8384 19.0939 12.5913C18.6756 12.4542 18.3792 12.4103 17.7071 12.386C16.9922 12.3602 16.7569 12.379 16.2708 12.5004C15.9511 12.5804 15.4555 12.7653 15.1694 12.9115L14.6492 13.1771L13.8495 12.3754L13.0498 11.5735L13.7684 11.251C14.6699 10.8463 14.9312 10.7532 15.6553 10.579C16.7206 10.3227 18.1121 10.3097 19.1775 10.5461ZM12.2419 13.7109L13.1822 14.6427L12.9159 15.1642C12.7694 15.4511 12.5842 15.9473 12.5042 16.2671C12.3827 16.7531 12.3639 16.9885 12.3898 17.7033C12.4141 18.3755 12.458 18.6719 12.5951 19.0901C12.8421 19.8435 13.2705 20.5276 13.8714 21.1286C14.4724 21.7295 15.1565 22.1579 15.9099 22.4049C16.3281 22.542 16.6246 22.5859 17.2967 22.6102C18.0115 22.6361 18.2469 22.6173 18.7329 22.4958C19.0527 22.4158 19.5483 22.2309 19.8344 22.0848L20.3546 21.8191L21.1543 22.6209L21.9539 23.4227L21.2289 23.7481C20.2809 24.1737 19.8664 24.3128 19.0514 24.4789C17.7713 24.7397 16.2231 24.6351 14.9088 24.1988C12.8333 23.5097 10.6578 22.0285 8.59321 19.8988C7.62731 18.9024 6.59336 17.6613 6.59336 17.4981C6.59336 17.3069 7.70706 16.0033 8.84763 14.8594C9.79288 13.9114 11.0876 12.786 11.2385 12.7811C11.2732 12.78 11.7246 13.1984 12.2419 13.7109ZM18.3307 14.5862C18.8592 14.7466 19.2212 14.9662 19.6281 15.373C20.0363 15.7813 20.2941 16.2219 20.4403 16.7613C20.5477 17.1571 20.5049 18.1904 20.3681 18.5083L20.2718 18.732L18.26 16.7184L16.2483 14.7048L16.5844 14.6016C17.0128 14.4701 17.9217 14.4621 18.3307 14.5862ZM18.5121 20.3643C18.1942 20.5011 17.1609 20.5439 16.7651 20.4366C16.2256 20.2903 15.785 20.0325 15.3768 19.6243C14.7588 19.0063 14.4946 18.369 14.4934 17.4935C14.493 17.2087 14.5415 16.8115 14.6011 16.6106L14.7095 16.2454L16.7226 18.2567L18.7357 20.268L18.5121 20.3643Z" fill="#323232"/>
</svg>
