<svg width="35" height="35" viewBox="0 0 35 35" fill="none" xmlns="http://www.w3.org/2000/svg">
<path fill-rule="evenodd" clip-rule="evenodd" d="M16.3697 0.0911831C15.9097 0.207782 15.3731 0.421559 15.0198 0.628907C14.8598 0.722802 14.5289 0.96065 14.2845 1.15747C13.8003 1.54734 13.5783 1.661 13.084 1.77178C12.8318 1.82834 12.5993 1.81931 12.0376 1.73123C10.9128 1.55479 9.96508 1.69601 9.00506 2.18306C8.41525 2.48225 8.01461 2.78739 7.52742 3.30836C7.23057 3.62575 7.02334 3.94053 6.79588 4.41944C6.62141 4.78695 6.39983 5.25075 6.30349 5.45003C6.20723 5.64931 6.00678 5.91656 5.85815 6.04383C5.70945 6.1711 5.28201 6.40436 4.90817 6.56213C4.53441 6.7199 4.05296 6.96308 3.83835 7.10252C3.62374 7.24196 3.24341 7.57405 2.99312 7.84048C2.24688 8.63486 1.85985 9.46234 1.70007 10.6051C1.62979 11.1077 1.63437 11.3177 1.73043 11.9858C1.81712 12.5887 1.82703 12.8484 1.77261 13.0914C1.66274 13.5818 1.54707 13.8019 1.12729 14.3198C0.645839 14.9137 0.238776 15.7359 0.100672 16.393C-0.0349014 17.0385 -0.0333973 17.9914 0.104296 18.6147C0.25074 19.2775 0.65835 20.0987 1.12934 20.6798C1.54748 21.1956 1.66192 21.4141 1.77261 21.9082C1.82703 22.1513 1.81712 22.4109 1.73043 23.0138C1.63437 23.6819 1.62979 23.8919 1.70007 24.3946C1.85937 25.5337 2.24811 26.3673 2.98402 27.1475C3.22926 27.4076 3.60672 27.7385 3.82276 27.8828C4.03887 28.0271 4.52435 28.2755 4.90175 28.4348C5.27907 28.594 5.7102 28.8292 5.85986 28.9572C6.0182 29.0929 6.21728 29.3694 6.33645 29.6194C7.05575 31.1287 7.14312 31.2803 7.53432 31.6987C8.01481 32.2124 8.4173 32.5184 9.00506 32.8166C9.96508 33.3036 10.9128 33.4448 12.0376 33.2684C12.5993 33.1803 12.8318 33.1713 13.084 33.2278C13.5766 33.3382 13.8001 33.4522 14.276 33.8351C14.8372 34.2868 15.3156 34.5583 15.9383 34.7787C16.3351 34.919 16.61 34.9623 17.2724 34.9892C17.9176 35.0154 18.2198 34.9963 18.6056 34.905C19.2892 34.7432 20.1047 34.3368 20.6769 33.8727C21.1942 33.4532 21.4106 33.3401 21.9116 33.2278C22.1638 33.1713 22.3963 33.1803 22.958 33.2684C24.0828 33.4448 25.0305 33.3036 25.9905 32.8166C26.5391 32.5382 26.945 32.2373 27.3877 31.7804C27.8432 31.3104 28.0842 30.9185 28.4455 30.0613C28.8419 29.1206 29.1178 28.846 30.0698 28.4446C30.4604 28.2799 30.9567 28.0271 31.1728 27.8828C31.3889 27.7385 31.7663 27.4076 32.0116 27.1475C32.7319 26.3838 33.1256 25.5532 33.2907 24.4486C33.3546 24.0214 33.3526 23.7653 33.2812 23.2177C33.2317 22.8374 33.1932 22.3874 33.1958 22.2178C33.2035 21.7174 33.3977 21.265 33.8412 20.714C34.3365 20.0987 34.743 19.286 34.8913 18.6147C34.951 18.344 35 17.8423 35 17.4998C35 17.1573 34.951 16.6557 34.8913 16.3849C34.743 15.7136 34.3365 14.9009 33.8412 14.2856C33.6067 13.9943 33.3788 13.625 33.3136 13.4308C33.1731 13.0118 33.1653 12.5996 33.2821 11.7619C33.3531 11.2533 33.355 11.003 33.2915 10.5651C33.1304 9.45564 32.7366 8.62091 32.0116 7.85211C31.7663 7.59203 31.3889 7.26118 31.1728 7.11688C30.9567 6.97252 30.4712 6.72414 30.0938 6.56487C29.7165 6.40559 29.2861 6.1711 29.1374 6.04383C28.9888 5.91656 28.7884 5.64931 28.6921 5.45003C28.5958 5.25075 28.3742 4.78695 28.1997 4.41944C27.7301 3.43057 27.0073 2.6989 25.9905 2.18306C25.0305 1.69601 24.0828 1.55479 22.958 1.73123C22.3963 1.81931 22.1638 1.82834 21.9116 1.77178C21.4106 1.65949 21.1942 1.54645 20.6769 1.1269C20.1211 0.676094 19.2955 0.257431 18.6557 0.10192C18.1167 -0.029109 16.8672 -0.0349903 16.3697 0.0911831ZM18.2498 2.1966C18.6458 2.31518 19.083 2.56459 19.4805 2.89859C19.9169 3.26542 20.7858 3.7022 21.3264 3.82667C21.8316 3.94292 22.608 3.94333 23.2825 3.82769C23.7367 3.74973 23.9159 3.74795 24.2738 3.81777C24.8761 3.93526 25.4355 4.25087 25.8662 4.71617C26.15 5.02282 26.2844 5.25006 26.479 5.75216C26.7686 6.4999 27.0156 6.91193 27.4572 7.38427C27.8983 7.85594 28.4468 8.20443 29.2194 8.5039C29.7398 8.70557 29.9621 8.8366 30.2747 9.12615C30.739 9.55603 31.0582 10.1174 31.1728 10.7049C31.2407 11.0536 31.2352 11.2586 31.1404 11.9144C31.0493 12.544 31.0405 12.8074 31.0971 13.2138C31.136 13.4942 31.218 13.8731 31.2791 14.0559C31.4409 14.5392 31.7527 15.102 32.0723 15.4873C32.6868 16.2284 32.8806 16.7108 32.8806 17.4998C32.8806 18.2888 32.6868 18.7713 32.0723 19.5123C31.7527 19.8976 31.4409 20.4604 31.2791 20.9437C31.218 21.1265 31.136 21.5054 31.0971 21.7858C31.0405 22.1922 31.0493 22.4556 31.1404 23.0852C31.2352 23.741 31.2407 23.9461 31.1728 24.2947C31.0582 24.8822 30.739 25.4436 30.2747 25.8735C29.9621 26.163 29.7398 26.2941 29.2194 26.4957C28.4468 26.7952 27.8983 27.1437 27.4572 27.6154C27.0156 28.0877 26.7686 28.4997 26.479 29.2475C26.2826 29.7543 26.1508 29.976 25.8571 30.2933C25.4342 30.7503 24.8683 31.0635 24.2412 31.188C23.9217 31.2514 23.7271 31.2481 23.2841 31.1718C22.5676 31.0484 21.7507 31.0631 21.1897 31.2096C20.622 31.3577 19.9591 31.7057 19.4805 32.1068C19.2737 32.2801 18.9129 32.5136 18.6788 32.6258C17.9031 32.9975 17.0925 32.9975 16.3168 32.6258C16.0827 32.5136 15.7219 32.2786 15.5151 32.1034C15.0806 31.7354 14.213 31.2981 13.6692 31.173C13.164 31.0567 12.3876 31.0563 11.7131 31.1719C11.2589 31.2499 11.0797 31.2517 10.7218 31.1819C10.1195 31.0644 9.56007 30.7488 9.12942 30.2835C8.84371 29.9748 8.71135 29.75 8.51151 29.2341C8.20392 28.4401 7.84294 27.8828 7.33585 27.4192C6.87389 26.9969 6.51865 26.7835 5.84693 26.5248C5.19798 26.2748 4.88848 26.0782 4.52928 25.6878C4.16488 25.2918 3.92737 24.8224 3.82317 24.2925C3.75487 23.9453 3.76027 23.7417 3.85524 23.0852C3.9463 22.4556 3.95505 22.1922 3.89851 21.7858C3.76834 20.8494 3.47101 20.1908 2.79909 19.3506C2.29597 18.7215 2.115 18.2319 2.115 17.4998C2.115 16.7677 2.29597 16.2782 2.79909 15.649C3.47101 14.8088 3.76834 14.1502 3.89851 13.2138C3.95505 12.8074 3.9463 12.544 3.85524 11.9144C3.76027 11.2579 3.75487 11.0544 3.82317 10.7072C3.92737 10.1773 4.16488 9.70784 4.52928 9.31182C4.88301 8.92728 5.21275 8.71515 5.79846 8.49528C6.42738 8.25921 6.90472 7.97445 7.34235 7.57446C7.84307 7.11668 8.20501 6.55666 8.51151 5.76549C8.71135 5.24959 8.84371 5.02487 9.12942 4.71617C9.56007 4.25087 10.1195 3.93526 10.7218 3.81777C11.0797 3.74795 11.2589 3.74973 11.7131 3.82769C12.3876 3.94333 13.164 3.94292 13.6692 3.82667C14.213 3.70152 15.0806 3.26419 15.5151 2.8962C16.3612 2.17971 17.3494 1.92688 18.2498 2.1966ZM12.3247 10.9636C11.4265 11.1815 10.6293 11.827 10.2152 12.6716C10.0843 12.9387 9.94641 13.323 9.90888 13.5256C9.86882 13.7416 9.84106 15.3822 9.84174 17.492C9.84304 21.4122 9.86116 21.6419 10.229 22.4C10.4755 22.908 11.0657 23.4983 11.5738 23.745C12.123 24.0115 12.8488 24.1547 13.3722 24.0997C14.2665 24.0056 14.9292 23.6921 15.4692 23.1076C15.8687 22.6752 16.1469 22.1502 16.2592 21.6168C16.3102 21.3747 16.3353 19.9894 16.3347 17.4452C16.3341 14.4829 16.3136 13.5599 16.2425 13.294C16.0949 12.7422 15.7997 12.2342 15.3875 11.8226C14.5895 11.0257 13.4204 10.6978 12.3247 10.9636ZM18.6786 11.069C18.5116 11.1448 18.3311 11.2959 18.2515 11.4265C18.1318 11.6229 18.1136 11.7709 18.1134 12.5488C18.1131 13.3667 18.1266 13.465 18.2683 13.6771C18.5778 14.1406 19.2497 14.2908 19.6889 13.9948C19.8146 13.91 19.9806 13.7331 20.0579 13.6016C20.1785 13.3962 20.1983 13.2464 20.1983 12.5418C20.1983 11.8425 20.1779 11.6857 20.06 11.4818C19.9091 11.2205 19.4262 10.9337 19.1412 10.9362C19.0458 10.937 18.8376 10.9968 18.6786 11.069ZM23.1382 11.0275C23.0253 11.0797 22.8627 11.1988 22.7766 11.2922C22.6856 11.391 21.6795 13.8138 20.3667 17.0959C18.7134 21.2293 18.1131 22.8033 18.1131 23.0053C18.1131 23.1568 18.1702 23.3871 18.2399 23.5172C18.3837 23.7854 18.8493 24.0649 19.1521 24.0649C19.4028 24.0649 19.8499 23.8385 19.9876 23.6418C20.0459 23.5586 21.1131 20.9399 22.3591 17.8227C24.3809 12.7647 24.6206 12.1248 24.5871 11.8756C24.5211 11.383 24.1315 11.0058 23.6416 10.9603C23.4721 10.9445 23.2547 10.9736 23.1382 11.0275ZM13.471 13.0642C13.5988 13.107 13.7755 13.207 13.8637 13.2864C14.2229 13.6099 14.2161 13.5301 14.2161 17.4578C14.2161 19.8758 14.1915 21.1807 14.1434 21.3079C14.03 21.6083 13.7536 21.8543 13.4268 21.9458C12.8676 22.1024 12.316 21.8679 12.0943 21.3793C11.9702 21.106 11.9629 20.8923 11.9615 17.4972C11.96 13.9058 11.9601 13.9042 12.1138 13.5992C12.2262 13.3762 12.3498 13.2526 12.5727 13.1402C12.9141 12.968 13.1295 12.9498 13.471 13.0642ZM23.0627 20.9485C22.946 20.9993 22.7768 21.1443 22.6867 21.2707C22.5382 21.479 22.5207 21.5817 22.5003 22.3705C22.4799 23.161 22.4915 23.2649 22.6264 23.5051C22.8271 23.8622 23.1207 24.0252 23.5637 24.0255C23.9495 24.0259 24.1754 23.9048 24.4329 23.5599C24.5528 23.3994 24.5775 23.249 24.5981 22.5576C24.6195 21.8401 24.6053 21.709 24.4784 21.4468C24.2298 20.9329 23.6042 20.7128 23.0627 20.9485Z" fill="#323232"/>
</svg>
