<svg width="27" height="35" viewBox="0 0 27 35" fill="none" xmlns="http://www.w3.org/2000/svg">
<path fill-rule="evenodd" clip-rule="evenodd" d="M12.8758 0.0494552C12.8126 0.0750264 12.3973 0.438972 11.9528 0.858299C11.5084 1.27756 10.9293 1.79787 10.6661 2.01454C9.95753 2.59769 8.85483 3.30712 7.96537 3.75202C5.92658 4.77186 4.09666 5.25929 1.81187 5.39104C1.22899 5.42461 0.675176 5.48225 0.581164 5.5191C0.487153 5.55602 0.317931 5.6836 0.205117 5.80264L0 6.01918V12.3562C0 18.1047 0.0112813 18.7631 0.121703 19.4453C0.472247 21.6116 1.03823 23.4134 1.94731 25.257C2.91047 27.2101 4.07642 28.8439 5.59497 30.3683C6.53701 31.3139 7.51746 32.1092 8.68328 32.8731C10.2829 33.9213 12.6236 35 13.2984 35C13.9736 35 16.3687 33.8954 17.9371 32.8607C20.1833 31.3787 21.9754 29.5886 23.4957 27.3081C23.7965 26.8569 24.3157 25.9338 24.6495 25.257C25.5586 23.4134 26.1246 21.6116 26.4751 19.4453C26.5855 18.763 26.5968 18.1045 26.5968 12.3528V6.01248L26.3575 5.77338C26.1785 5.59452 26.0254 5.51671 25.75 5.46454C25.5474 5.42618 25.1566 5.3948 24.8817 5.3948C24.2136 5.3948 22.9468 5.22407 22.0566 5.01404C20.9438 4.75155 19.9947 4.4075 18.8708 3.8593C17.7975 3.33577 16.8885 2.77293 16.0729 2.12702C15.8066 1.91616 15.2134 1.38046 14.7546 0.936449C14.2958 0.492508 13.8399 0.0986832 13.7417 0.0612836C13.5415 -0.0148148 13.0513 -0.0215152 12.8758 0.0494552ZM13.6093 2.80308C13.9923 3.19978 15.1084 4.09067 15.8116 4.56121C17.4732 5.67287 19.3369 6.5053 21.2638 6.99649C22.0572 7.19874 23.2876 7.41158 24.0569 7.47975L24.5936 7.52726L24.5606 12.8026C24.533 17.2222 24.5093 18.2054 24.4144 18.8641C24.0794 21.1926 23.3707 23.3161 22.3108 25.1679C21.469 26.6383 20.5537 27.8316 19.393 28.9711C18.0708 30.2693 16.5912 31.3112 14.9075 32.1303C13.4713 32.8288 13.3676 32.8633 13.042 32.7515C12.5018 32.566 10.5691 31.578 9.95501 31.1734C8.10239 29.9528 6.7132 28.6489 5.41146 26.9089C3.73566 24.6687 2.61647 21.8805 2.18237 18.8641C2.08754 18.2053 2.06382 17.2217 2.0362 12.7961C2.00577 7.93244 2.01206 7.51434 2.1153 7.51434C2.48513 7.51434 3.69607 7.34239 4.56419 7.16653C6.75238 6.72341 8.894 5.8265 10.7852 4.56121C11.4885 4.09067 12.6045 3.19978 12.9875 2.80308C13.1362 2.64911 13.2761 2.52316 13.2984 2.52316C13.3208 2.52316 13.4607 2.64911 13.6093 2.80308ZM11.6917 8.30849C10.4123 8.53794 9.27285 8.99925 8.16755 9.73507C6.03262 11.1563 4.61096 13.344 4.17297 15.8818C4.03731 16.6675 4.03731 18.1891 4.17297 18.9748C4.36892 20.1102 4.77683 21.2231 5.34411 22.1701C5.74211 22.8344 6.40402 23.6516 6.97855 24.1882C7.61667 24.7842 8.62031 25.4639 9.40536 25.8318C10.069 26.1428 10.958 26.4143 11.7852 26.5585C12.5359 26.6894 14.0728 26.687 14.8449 26.5538C17.1452 26.1568 19.1708 24.9494 20.5765 23.1374C21.574 21.8517 22.1523 20.5486 22.4239 18.9748C22.5595 18.1891 22.5595 16.6675 22.4239 15.8818C22.1523 14.308 21.574 13.005 20.5765 11.7192C19.1708 9.90723 17.1452 8.69985 14.8449 8.30288C14.0842 8.1716 12.4385 8.17448 11.6917 8.30849ZM14.6659 10.429C15.319 10.5443 16.2485 10.8926 16.8778 11.2577C17.7573 11.7678 18.6178 12.5688 19.1872 13.4073C19.5838 13.9912 20.0448 14.9943 20.2072 15.6264C20.4893 16.7248 20.488 18.1244 20.2039 19.2245C20.0329 19.8862 19.5882 20.8574 19.1752 21.4707C18.8017 22.0253 17.9014 22.9276 17.3532 23.2966C16.4975 23.8728 15.5761 24.257 14.5975 24.446C13.918 24.5772 12.6535 24.5718 11.9371 24.4346C10.6591 24.1899 9.40133 23.542 8.41711 22.6213C7.64368 21.8978 7.05917 21.0297 6.64681 19.9923C6.32505 19.1828 6.18202 18.3939 6.18202 17.4283C6.18202 16.4628 6.32505 15.6739 6.64681 14.8644C7.05917 13.8269 7.64368 12.9588 8.41711 12.2354C8.98849 11.7009 9.54901 11.3257 10.3258 10.9577C11.0916 10.5949 11.8253 10.3971 12.6489 10.3312C13.4042 10.2708 13.9097 10.2954 14.6659 10.429ZM16.9429 14.417C16.8603 14.4524 16.2757 14.9998 15.6438 15.6337C15.0119 16.2676 13.9182 17.3511 13.2133 18.0416L11.9316 19.297L10.8471 18.2309C9.67967 17.0833 9.58367 17.0256 8.97571 17.1072C8.77743 17.1338 8.62571 17.2147 8.45622 17.3842C8.25548 17.5849 8.21206 17.6825 8.18792 17.9875C8.17213 18.1876 8.18594 18.4218 8.21869 18.5081C8.25137 18.5943 8.9833 19.3709 9.84499 20.234C11.519 21.9105 11.5501 21.9324 12.1392 21.8534C12.2928 21.8328 12.5173 21.7294 12.6648 21.6112C12.8065 21.4978 14.1427 20.1795 15.6342 18.6817C18.0148 16.291 18.352 15.9265 18.3946 15.6976C18.4792 15.2434 18.3932 14.9018 18.1272 14.6359C17.9152 14.4238 17.8387 14.3925 17.4897 14.3739C17.2715 14.3623 17.0255 14.3817 16.9429 14.417Z" fill="#323232"/>
</svg>
